<svg width="114.502" height="77.307" viewBox="0 0 114.502 77.307" xmlns="http://www.w3.org/2000/svg"><g id="svgGroup" stroke-linecap="round" fill-rule="evenodd" font-size="9pt" stroke="#ffffff" stroke-width="0.25mm" fill="#ffffff" style="stroke:#ffffff;stroke-width:0.25mm;fill:#ffffff"><path d="M 30.1 71.6 L 30.6 70.9 A 13.872 13.872 0 0 0 38.816 68.172 A 19.533 19.533 0 0 0 41.2 66.15 A 31.35 31.35 0 0 0 45.392 60.939 Q 47.594 57.556 49.4 53.2 A 446.04 446.04 0 0 0 48.555 50.509 Q 47.975 48.681 47.3 46.6 Q 46.1 42.9 44.75 38.85 L 42.05 30.75 Q 40.7 26.7 39.4 23 A 345.554 345.554 0 0 0 38.225 19.707 Q 37.664 18.161 37.147 16.789 A 204.181 204.181 0 0 0 37 16.4 A 10.773 10.773 0 0 0 36.274 14.861 Q 35.459 13.455 34.35 12.75 A 6.923 6.923 0 0 0 32.357 11.902 Q 31.372 11.647 30.2 11.6 L 30 11.2 L 30.6 7.9 L 32.2 7.9 A 122.062 122.062 0 0 1 33.844 7.912 Q 34.711 7.923 35.672 7.947 A 197.884 197.884 0 0 1 35.8 7.95 Q 37.8 8 38.9 8 Q 41.1 8 43.25 7.9 A 112.514 112.514 0 0 0 45.167 7.795 Q 46.197 7.73 47.1 7.65 Q 48.621 7.516 49.621 7.422 A 206.353 206.353 0 0 0 49.85 7.4 L 50.9 7.3 L 51.1 7.8 L 50.5 10.9 A 35.226 35.226 0 0 0 49.03 10.972 Q 46.991 11.117 46.085 11.49 A 2.66 2.66 0 0 0 45.95 11.55 A 1.992 1.992 0 0 0 45.19 12.158 Q 44.91 12.537 44.831 13.064 A 2.949 2.949 0 0 0 44.8 13.5 Q 44.8 14.4 45.45 16.95 A 129.328 129.328 0 0 0 45.987 18.982 Q 46.231 19.879 46.509 20.858 A 231.344 231.344 0 0 0 47.1 22.9 A 1075.58 1075.58 0 0 0 48.656 28.141 A 1198.939 1198.939 0 0 0 49.2 29.95 Q 50.3 33.6 51.3 36.75 Q 52.3 39.9 52.95 41.85 L 53.6 43.8 L 54 43.8 Q 55.7 39.7 57.7 34.85 Q 59.7 30 61.45 25.5 Q 62.653 22.406 63.573 19.927 A 223.631 223.631 0 0 0 64.35 17.8 A 77.042 77.042 0 0 0 64.741 16.688 Q 65.474 14.546 65.499 13.941 A 0.987 0.987 0 0 0 65.5 13.9 A 3.409 3.409 0 0 0 65.423 13.148 Q 65.315 12.672 65.057 12.329 A 1.854 1.854 0 0 0 64.6 11.9 Q 63.797 11.365 62.119 11.307 A 12.185 12.185 0 0 0 61.7 11.3 L 57.1 11.3 L 56.9 10.9 L 57.5 7.6 L 59.05 7.7 Q 60.523 7.795 62.718 7.89 A 317.139 317.139 0 0 0 62.95 7.9 Q 65.3 8 67.7 8 Q 69.5 8 71.45 7.95 Q 72.791 7.916 73.871 7.905 A 93.668 93.668 0 0 1 74.8 7.9 L 76.2 7.9 L 75.5 11.6 A 8.342 8.342 0 0 0 74.083 11.98 Q 73.304 12.27 72.715 12.705 A 4.397 4.397 0 0 0 72.15 13.2 Q 71.144 14.25 70.176 16.602 A 26.893 26.893 0 0 0 69.9 17.3 L 57.2 47.7 Q 53.589 56.385 50.836 62.118 A 157.262 157.262 0 0 1 50.7 62.4 A 89.753 89.753 0 0 1 48.984 65.781 Q 48.059 67.506 47.176 68.936 A 36.513 36.513 0 0 1 45.45 71.5 A 21.254 21.254 0 0 1 43.748 73.532 Q 42.106 75.247 40.4 76.1 Q 37.986 77.307 34.968 77.307 A 15.446 15.446 0 0 1 34.5 77.3 A 0.667 0.667 0 0 1 34.251 77.245 Q 33.918 77.109 33.443 76.642 A 6.706 6.706 0 0 1 33.4 76.6 Q 32.7 75.9 31.95 74.95 A 16.743 16.743 0 0 1 30.975 73.584 A 14.478 14.478 0 0 1 30.65 73.05 Q 30.1 72.1 30.1 71.6 Z M 113.9 26.2 L 112.6 27.4 L 85 27.4 A 45.638 45.638 0 0 0 84.997 27.913 Q 84.997 33.969 86.634 38.246 A 17.005 17.005 0 0 0 88.25 41.45 A 13.202 13.202 0 0 0 92.813 45.84 A 13.617 13.617 0 0 0 97.7 47.45 A 16.679 16.679 0 0 0 100.004 47.605 Q 104.165 47.605 109.228 45.701 A 44.842 44.842 0 0 0 112.1 44.5 L 112.7 44.7 L 113.8 47.6 A 54.125 54.125 0 0 1 111.906 48.863 Q 110.597 49.7 109.05 50.6 A 40.551 40.551 0 0 1 103.675 53.231 A 37.495 37.495 0 0 1 103.5 53.3 A 18.773 18.773 0 0 1 101.484 53.97 Q 100.428 54.252 99.473 54.349 A 9.639 9.639 0 0 1 98.5 54.4 A 23.912 23.912 0 0 1 92.686 53.722 A 19.141 19.141 0 0 1 87.5 51.6 Q 82.8 48.8 80.15 43.85 A 22.134 22.134 0 0 1 77.82 36.69 A 29.033 29.033 0 0 1 77.5 32.3 Q 77.5 27.2 79.25 22.6 Q 81 18 84.1 14.45 A 24.208 24.208 0 0 1 90.296 9.316 A 22.954 22.954 0 0 1 91.15 8.85 Q 95.1 6.8 99.6 6.8 A 22.132 22.132 0 0 1 105.406 7.494 Q 112.049 9.304 113.839 15.836 A 20.697 20.697 0 0 1 114.5 21.3 Q 114.5 22.6 114.3 24 Q 114.119 25.265 113.939 26.04 A 10.334 10.334 0 0 1 113.9 26.2 Z M 6.1 42.3 L 6.1 17.7 A 9.555 9.555 0 0 0 6.015 16.379 Q 5.803 14.865 5.06 14.059 A 2.705 2.705 0 0 0 4.9 13.9 A 3.315 3.315 0 0 0 3.945 13.31 Q 2.669 12.769 0.4 12.7 L 0 12.1 L 0.5 9.1 Q 2.9 7.9 5.15 6.35 Q 7.4 4.8 9.15 3.35 Q 10.9 1.9 11.9 0.95 L 12.9 0 L 14.9 0.8 L 14.65 2.7 Q 14.4 4.6 14.1 8.3 L 28.8 8 L 29.1 8.3 L 28.2 13.6 L 13.7 13.3 A 264.177 264.177 0 0 0 13.489 17.05 Q 13.325 20.362 13.2 24.3 Q 13 30.6 13 38.3 Q 13 42.481 14.176 44.646 A 5.227 5.227 0 0 0 14.75 45.5 A 5.119 5.119 0 0 0 16.814 46.954 Q 17.665 47.297 18.736 47.458 A 13.939 13.939 0 0 0 20.8 47.6 A 12.215 12.215 0 0 0 24.423 47.072 A 11.26 11.26 0 0 0 25.45 46.7 L 27.6 45.8 L 28.6 48.4 L 27.4 49.3 A 62.481 62.481 0 0 1 26.423 50.017 Q 25.544 50.65 24.45 51.4 A 42.165 42.165 0 0 1 22.302 52.783 A 35.133 35.133 0 0 1 21.05 53.5 Q 19.758 54.204 18.926 54.358 A 2.369 2.369 0 0 1 18.5 54.4 A 26.464 26.464 0 0 1 15.17 54.206 Q 11.599 53.751 9.578 52.232 A 6.778 6.778 0 0 1 8.9 51.65 Q 6.1 48.9 6.1 42.3 Z M 85.4 23.7 L 103.5 22.8 A 8.382 8.382 0 0 0 104.178 22.683 Q 105.123 22.477 105.5 22.1 A 1.274 1.274 0 0 0 105.764 21.69 Q 106 21.131 106 20.1 Q 106 17.162 104.84 15.249 A 6.314 6.314 0 0 0 103.85 14 A 6.957 6.957 0 0 0 100.896 12.316 Q 99.835 12.004 98.568 11.926 A 14.111 14.111 0 0 0 97.7 11.9 Q 93.1 11.9 89.7 15.05 A 13.211 13.211 0 0 0 86.314 20.196 A 18.448 18.448 0 0 0 85.4 23.7 Z" vector-effect="non-scaling-stroke"/></g></svg>